#N canvas 827 239 527 327 12;
#X obj 224 582 *~;
#X obj 356 483 line~;
#X obj 415 342 delay 20;
#X obj 356 164 bng 66 250 50 0 empty empty empty 17 7 0 10 #e4e4e4 #4d4d4d #373737;
#X msg 356 393 1 20;
#X obj 224 716 output~;
#X text 270 580 default 0 Therefore no audio...;
#X msg 415 393 0 250;
#X text 108 391 Go from 0 to 1 in 20ms (prevents click);
#X text 482 392 Go from 1 to 0 in 250ms after 20ms (works as short fade out), f 42;
#X obj 224 342 osc~;
#X msg 224 240 60 \, 40 250;
#X obj 224 304 line~;
#X text 54 210 Go from 60 hz to 40 hz in 250 miliseconds, f 42;
#X obj 1071 583 *~;
#X obj 1203 165 bng 66 250 50 0 empty empty empty 17 7 0 10 #e4e4e4 #4d4d4d #373737;
#X obj 1071 716 output~;
#X obj 1046 437 osc~;
#X obj 1046 399 envgen~ 0 60 250 40;
#X obj 1203 399 envgen~ 20 1 250 0;
#X text 815 164 more simple version with constant parameters using envgen~;
#X connect 0 0 5 0;
#X connect 0 0 5 1;
#X connect 1 0 0 1;
#X connect 2 0 7 0;
#X connect 3 0 11 0;
#X connect 3 0 4 0;
#X connect 3 0 2 0;
#X connect 4 0 1 0;
#X connect 7 0 1 0;
#X connect 10 0 0 0;
#X connect 11 0 12 0;
#X connect 12 0 10 0;
#X connect 14 0 16 0;
#X connect 14 0 16 1;
#X connect 15 0 18 0;
#X connect 15 0 19 0;
#X connect 17 0 14 0;
#X connect 18 0 17 0;
#X connect 19 0 14 1;
