#N canvas 827 239 527 327 12;
#X obj 55 470 osc~;
#X obj 55 542 *~;
#X obj 55 743 outlet~;
#X obj 55 104 inlet;
#X obj 344 104 inlet;
#X obj 465 104 inlet;
#X obj 318 401 envgen~;
#X obj 315 172 float \$1;
#X obj 435 223 float \$2;
#X obj 318 327 pack f f;
#X msg 318 363 \$1 1 \$2 0;
#X obj 83 223 / 1.5;
#X obj 55 327 pack f f f;
#X obj 138 223 / 2;
#X obj 55 147 t f f b;
#X text 375 142 \$1 is first argument (attack time) when you create an object 03_kick~ in 04_playground_kick.pd patch \, it is stored until is it rewritten by value from the inlet...;
#X text 501 222 \$2 is first argument (release time) when you create an object 03_kick~ in 04_playground_kick.pd patch \, it is stored until is it rewritten by value from the inlet...;
#X text 138 247 release time for pitch drop is twice lease than release time of envelope..., f 22;
#X obj 55 415 line~;
#X msg 55 371 \$1 \, \$2 \$3;
#X connect 0 0 1 0;
#X connect 1 0 2 0;
#X connect 3 0 14 0;
#X connect 4 0 7 1;
#X connect 5 0 8 1;
#X connect 6 0 1 1;
#X connect 7 0 9 0;
#X connect 8 0 9 1;
#X connect 8 0 13 0;
#X connect 9 0 10 0;
#X connect 10 0 6 0;
#X connect 11 0 12 1;
#X connect 12 0 19 0;
#X connect 13 0 12 2;
#X connect 14 0 12 0;
#X connect 14 1 11 0;
#X connect 14 2 7 0;
#X connect 14 2 8 0;
#X connect 18 0 0 0;
#X connect 19 0 0 0;
