#N canvas 827 239 527 327 12;
#X obj 154 75 palette/metronome.m~;
#X obj 154 240 palette/noteseq.m~;
#X obj 154 571 unpack f f;
#X obj 154 657 mtof;
#X obj 154 611 spigot;
#X text 252 563 unpack is simply outputing note and velocity pair into two separate outlets \, spigot is then passing only if velocity is higher than 0 (ignoring note-off messages);
#X obj 154 905 output~;
#X obj 154 764 03_kick~ 20 500;
#X obj 154 709 / 4;
#X connect 0 0 1 0;
#X connect 1 0 2 0;
#X connect 2 0 4 0;
#X connect 2 1 4 1;
#X connect 3 0 8 0;
#X connect 4 0 3 0;
#X connect 7 0 6 0;
#X connect 7 0 6 1;
#X connect 8 0 7 0;
