#N canvas 827 239 527 327 12;
#X obj 92 814 output~;
#X obj 91 89 tgl 146 0 empty empty empty 17 7 0 10 #e4e4e4 #4d4d4d #373737 0 1;
#X obj 91 292 metro 500;
#X obj 91 419 t b b;
#X text 182 489 send that random time as release parameter for our kick object;
#X text 152 571 instead of creating and abstraction via pd object \, we saved into separate file 03_kick~ and now we can play with it like this! If that file is in the very same folder;
#X obj 91 505 float 60;
#X text 226 341 random time from 100ms to 500ms (0.5 second) for next beat;
#X obj 226 371 random 500;
#X obj 226 411 + 100;
#X obj 91 548 03_kick~ 5 500;
#X connect 1 0 2 0;
#X connect 2 0 3 0;
#X connect 3 0 6 0;
#X connect 3 1 8 0;
#X connect 6 0 10 0;
#X connect 8 0 9 0;
#X connect 9 0 2 1;
#X connect 9 0 10 2;
#X connect 10 0 0 0;
#X connect 10 0 0 1;
