#N canvas 827 239 527 327 12;
#X obj 55 608 osc~;
#X obj 55 694 *~;
#X obj 55 743 outlet~;
#X obj 55 107 inlet;
#X obj 296 107 inlet;
#X obj 417 107 inlet;
#X text 55 48 this kick is going to accept standard MIDI messages;
#X obj 55 159 unpack f f;
#X obj 55 266 mtof;
#X obj 82 380 / 1.5;
#X obj 55 443 pack f f f;
#X obj 244 382 / 2;
#X obj 429 374 asr~ \$1 \$2;
#X obj 244 350 float \$2;
#X obj 55 319 t f f b;
#X text 516 373 check documentation also helpful external object...;
#X obj 55 212 spigot;
#X text 105 237 filter out note-off messages;
#X obj 55 560 line~;
#X msg 55 480 \$1 \, \$2 \$3;
#X connect 0 0 1 0;
#X connect 1 0 2 0;
#X connect 3 0 7 0;
#X connect 4 0 12 1;
#X connect 5 0 12 2;
#X connect 5 0 13 1;
#X connect 7 0 16 0;
#X connect 7 1 12 0;
#X connect 7 1 16 1;
#X connect 8 0 14 0;
#X connect 9 0 10 1;
#X connect 10 0 19 0;
#X connect 11 0 10 2;
#X connect 12 0 1 1;
#X connect 13 0 11 0;
#X connect 14 0 10 0;
#X connect 14 1 9 0;
#X connect 14 2 13 0;
#X connect 16 0 14 0;
#X connect 18 0 0 0;
#X connect 19 0 18 0;
