#N canvas 827 239 527 327 12;
#X obj 494 -473 unpack;
#X obj 495 -335 osc~;
#X obj 494 -377 mtof;
#X obj 598 -377 *~;
#X obj 609 -410 adsr~ 1000 10 0.5 10000;
#X obj 494 -421 spigot;
#X obj 598 -325 outlet~;
#X obj 494 -513 inlet;
#X connect 0 0 5 0;
#X connect 0 1 4 0;
#X connect 0 1 5 1;
#X connect 1 0 3 0;
#X connect 2 0 1 0;
#X connect 3 0 6 0;
#X connect 4 0 3 1;
#X connect 5 0 2 0;
#X connect 7 0 0 0;
