#N canvas 827 239 527 327 12;
#X obj 337 -99 keyboard 16 80 4 2 0 0 empty empty;
#X obj 765 251 soundfiler;
#X obj 765 176 openpanel;
#N canvas 0 0 450 250 (subpatch) 0;
#X array sample 1.20207e+07 float 4;
#X coords 0 1 1.20207e+07 -1 200 140 1;
#X restore 950 81 graph;
#X obj 765 81 bng 25 250 50 0 empty empty empty 17 7 0 10 #e4e4e4 #4d4d4d #373737;
#X obj 303 87 unpack f f;
#X obj 303 154 spigot;
#X obj 319 505 phasor~;
#X obj 488 591 +~;
#X obj 312 330 t f f b;
#X obj 286 422 /;
#X obj 312 466 sig~;
#X obj 709 566 *~;
#X obj 642 141 asr~ 100 100;
#X obj 303 208 t f b;
#X obj 401 279 samplerate~;
#X obj 370 410 float;
#X obj 709 631 out~;
#X obj 319 533 *~ 48000;
#X obj 241 279 scale 36 83 5;
#X obj 525 279 scale 36 83 0 0;
#X msg 765 216 read -resize \$1 sample;
#X obj 595 505 tabread4~ sample;
#X connect 0 0 5 0;
#X connect 1 0 20 4;
#X connect 2 0 21 0;
#X connect 4 0 2 0;
#X connect 5 0 6 0;
#X connect 5 1 6 1;
#X connect 5 1 13 0;
#X connect 6 0 14 0;
#X connect 6 0 20 0;
#X connect 7 0 18 0;
#X connect 8 0 22 0;
#X connect 9 0 18 1;
#X connect 9 1 10 1;
#X connect 9 2 16 0;
#X connect 10 0 11 0;
#X connect 11 0 7 0;
#X connect 12 0 17 0;
#X connect 13 0 12 1;
#X connect 14 0 19 0;
#X connect 14 1 15 0;
#X connect 15 0 19 4;
#X connect 15 0 16 1;
#X connect 16 0 10 0;
#X connect 18 0 8 0;
#X connect 19 0 9 0;
#X connect 20 0 8 1;
#X connect 21 0 1 0;
#X connect 22 0 12 0;
