#N canvas 827 239 527 327 12;
#X obj 1013 362 hsl 128 17 0 127 0 0 empty empty position -2 -8 0 10 #e4e4e4 #4d4d4d #373737 0 1;
#N canvas 0 0 450 250 (subpatch) 0;
#X array soundfile 1.20207e+07 float 4;
#X coords 0 1 1.20207e+07 -1 134 140 1;
#X restore 1010 204 graph;
#X obj 825 204 bng 25 250 50 0 empty empty empty 17 7 0 10 #e4e4e4 #4d4d4d #373737;
#X obj 439 517 +~;
#X obj 439 477 *~;
#X obj 439 409 phasor~;
#X obj 439 372 sig~;
#X obj 825 259 openpanel;
#X msg 825 292 read -resize \$1 soundfile;
#X obj 825 324 soundfiler;
#X obj 439 708 output~;
#X obj 439 556 tabread4~ soundfile;
#X obj 759 556 scale 0 127 0 0;
#X obj 551 402 *;
#X obj 631 344 samplerate~;
#X msg 439 233 1 \$1;
#X obj 439 269 /;
#X obj 439 168 t f f b;
#X obj 1010 423 nbx 12 59 0.05 1e+37 0 0 empty empty chunk\ duration\ in\ seconds 0 -8 0 10 #e4e4e4 #373737 #373737 0 256;
#X text 13 232 sending message with two values into / (1 will be divided by whatever comes from trigger object...) and so we get frequency at which we gonna read the chunk at acual position...;
#X obj 607 56 vsl 17 128 0.5 2 0 0 empty empty playback\ speed 0 -9 0 10 #e4e4e4 #4d4d4d #373737 0 1;
#X obj 439 324 * 1;
#X obj 884 120 bang;
#X text 592 401 conversion from seconds to number of frames..., f 19;
#X text 231 476 this basically does mapping from phasor's 0-1 to position-chunk size, f 28;
#X text 631 53 we send bang to activate flow since we are only sending value of this slider into cold inlet of * (changing default value of 1 = normal playback speed);
#X text 872 555 scaling again so that slider range maps range of the sound in a table, f 21;
#X connect 0 0 12 0;
#X connect 2 0 7 0;
#X connect 3 0 11 0;
#X connect 4 0 3 0;
#X connect 5 0 4 0;
#X connect 6 0 5 0;
#X connect 7 0 8 0;
#X connect 8 0 9 0;
#X connect 9 0 12 4;
#X connect 11 0 10 0;
#X connect 11 0 10 1;
#X connect 12 0 3 1;
#X connect 13 0 4 1;
#X connect 14 0 13 1;
#X connect 15 0 16 0;
#X connect 16 0 21 0;
#X connect 17 0 15 0;
#X connect 17 1 13 0;
#X connect 17 2 14 0;
#X connect 18 0 17 0;
#X connect 20 0 21 1;
#X connect 20 0 22 0;
#X connect 21 0 6 0;
#X connect 22 0 18 0;
