#N canvas 827 239 527 327 12;
#N canvas 0 0 450 250 (subpatch) 0;
#X array soundfile 1.20207e+07 float 4;
#X coords 0 1 1.20207e+07 -1 134 140 1;
#X restore 1020 404 graph;
#X obj 1170 407 bng 25 250 50 0 empty empty empty 17 7 0 10 #e4e4e4 #4d4d4d #373737;
#X obj 449 717 +~;
#X obj 449 677 *~;
#X obj 449 609 phasor~;
#X obj 449 572 sig~;
#X obj 1170 479 openpanel;
#X msg 1170 512 read -resize \$1 soundfile;
#X obj 1170 544 soundfiler;
#X obj 449 908 output~;
#X obj 449 756 tabread4~ soundfile;
#X obj 561 602 *;
#X obj 641 544 samplerate~;
#X msg 449 433 1 \$1;
#X obj 449 469 /;
#X obj 449 368 t f f b;
#X obj 1020 716 nbx 12 59 0.05 1e+37 0 0 empty empty chunk\ duration\ in\ seconds 0 -8 0 10 #e4e4e4 #373737 #373737 0 256;
#X obj 677 124 vsl 17 128 0.5 2 0 0 empty empty playback\ speed 0 -9 0 10 #e4e4e4 #4d4d4d #373737 0 1;
#X obj 449 524 * 1;
#X obj 1020 602 bang;
#X obj 854 122 keyboard 9 49 2 2 0 0 empty empty;
#X obj 766 610 unpack f f;
#X obj 766 655 spigot;
#X obj 449 828 *~;
#X obj 702 821 asr~ 100 100;
#X obj 766 756 scale 36 59 0 0;
#X obj 932 225 t b b;
#X obj 932 344 /;
#X obj 986 260 random 16;
#X obj 932 295 pack 2 f;
#X connect 1 0 6 0;
#X connect 2 0 10 0;
#X connect 3 0 2 0;
#X connect 4 0 3 0;
#X connect 5 0 4 0;
#X connect 6 0 7 0;
#X connect 7 0 8 0;
#X connect 8 0 25 4;
#X connect 10 0 23 0;
#X connect 11 0 3 1;
#X connect 12 0 11 1;
#X connect 13 0 14 0;
#X connect 14 0 18 0;
#X connect 15 0 13 0;
#X connect 15 1 11 0;
#X connect 15 2 12 0;
#X connect 16 0 15 0;
#X connect 17 0 18 1;
#X connect 17 0 19 0;
#X connect 18 0 5 0;
#X connect 19 0 16 0;
#X connect 20 0 21 0;
#X connect 20 0 26 0;
#X connect 21 0 22 0;
#X connect 21 1 22 1;
#X connect 21 1 24 0;
#X connect 22 0 25 0;
#X connect 23 0 9 0;
#X connect 23 0 9 1;
#X connect 24 0 23 1;
#X connect 25 0 2 1;
#X connect 26 0 29 0;
#X connect 26 1 28 0;
#X connect 27 0 16 0;
#X connect 28 0 29 1;
#X connect 29 0 27 0;
