#N canvas 827 239 527 327 12;
#N canvas 0 0 450 250 (subpatch) 0;
#X array array_for_each_voice 1.20207e+07 float 2;
#X coords 0 1 1.20207e+07 -1 200 140 1;
#X restore 70 144 graph;
#X obj 321 264 soundfiler;
#X obj 321 139 openpanel;
#X msg 321 227 read -resize \$1 array_for_each_voice;
#X obj 321 87 bng 25 250 50 0 empty empty empty 17 7 0 10 #e4e4e4 #4d4d4d #373737;
#X obj 70 87 keyboard 7 36 4 2 0 0 empty empty;
#X obj 70 625 pack f f f;
#X obj 70 319 unpack f f;
#X obj 70 766 output~;
#X obj 70 549 poly 4 1;
#X obj 70 668 clone 03_sampler_voice~ 4 array_for_each_voice;
#X obj 255 426 scale 36 83 0 0;
#X connect 1 0 11 4;
#X connect 2 0 3 0;
#X connect 3 0 1 0;
#X connect 4 0 2 0;
#X connect 5 0 7 0;
#X connect 6 0 10 0;
#X connect 7 0 11 0;
#X connect 7 1 9 1;
#X connect 9 0 6 0;
#X connect 9 1 6 1;
#X connect 9 2 6 2;
#X connect 10 0 8 0;
#X connect 10 0 8 1;
#X connect 11 0 9 0;
