#N canvas 827 239 527 327 12;
#X obj 291 180 mousestate;
#X obj 291 72 metro 10;
#X obj 291 23 tgl 25 0 empty empty track\ mouse 17 7 0 10 #e4e4e4 #4d4d4d #373737 0 1;
#X obj 307 230 nbx 4 18 -1e+37 1e+37 0 0 empty empty empty 0 -8 0 10 #e4e4e4 #373737 #373737 0 256;
#X obj 445 230 nbx 4 18 -1e+37 1e+37 0 0 empty empty empty 0 -8 0 10 #e4e4e4 #373737 #373737 0 256;
#X obj 715 228 tgl 98 0 empty empty empty 17 7 0 10 #e4e4e4 #4d4d4d #373737 0 1;
#X obj 813 228 tgl 98 0 empty empty empty 17 7 0 10 #e4e4e4 #4d4d4d #373737 0 1;
#X obj 715 326 tgl 98 0 empty empty empty 17 7 0 10 #e4e4e4 #4d4d4d #373737 0 1;
#X obj 813 326 tgl 98 0 empty empty empty 17 7 0 10 #e4e4e4 #4d4d4d #373737 0 1;
#X obj 479 381 float 1199;
#X obj 445 461 <;
#X obj 307 461 <;
#X obj 345 417 / 2;
#X obj 345 381 float 1919;
#X obj 479 417 / 2;
#X text 716 434 Adjust your max values for resolution (you gotta be in fullscreen mode...), f 28;
#X obj 307 505 * 2;
#X obj 307 554 +;
#X obj 307 594 route 3 2 1 0;
#X obj 715 146 unpack f f f f;
#X msg 307 639 1 0 0 0;
#X msg 377 639 0 1 0 0;
#X msg 457 639 0 0 1 0;
#X msg 526 639 0 0 0 1;
#X obj 715 23 r this_part_of_screen;
#X obj 308 752 s this_part_of_screen;
#X obj 307 260 t f f b;
#X obj 445 260 t f f b;
#X connect 0 1 3 0;
#X connect 0 2 4 0;
#X connect 1 0 0 0;
#X connect 2 0 1 0;
#X connect 3 0 26 0;
#X connect 4 0 27 0;
#X connect 9 0 14 0;
#X connect 10 0 17 1;
#X connect 11 0 16 0;
#X connect 12 0 11 1;
#X connect 13 0 12 0;
#X connect 14 0 10 1;
#X connect 16 0 17 0;
#X connect 17 0 18 0;
#X connect 18 0 20 0;
#X connect 18 1 22 0;
#X connect 18 2 21 0;
#X connect 18 3 23 0;
#X connect 19 0 5 0;
#X connect 19 1 6 0;
#X connect 19 2 7 0;
#X connect 19 3 8 0;
#X connect 20 0 25 0;
#X connect 21 0 25 0;
#X connect 22 0 25 0;
#X connect 23 0 25 0;
#X connect 24 0 19 0;
#X connect 26 0 11 0;
#X connect 26 2 13 0;
#X connect 27 0 10 0;
#X connect 27 2 9 0;
