#N canvas 827 239 527 327 12;
#X obj 72 167 key;
#X obj 129 167 nbx 6 34 -1e+37 1e+37 0 0 empty empty empty 0 -8 0 10 #e4e4e4 #373737 #373737 0 256;
#X obj 72 261 route 97 115 100 102;
#X obj 72 471 tgl 25 0 empty empty a 17 7 0 20 #e4e4e4 #4d4d4d #373737 0 1;
#X obj 75 323 b;
#X obj 103 471 tgl 25 0 empty empty s 17 7 0 20 #e4e4e4 #4d4d4d #373737 0 1;
#X obj 106 325 b;
#X obj 137 471 tgl 25 0 empty empty d 17 7 0 20 #e4e4e4 #4d4d4d #373737 0 1;
#X obj 140 325 b;
#X obj 169 471 tgl 25 0 empty empty f 17 7 0 20 #e4e4e4 #4d4d4d #373737 0 1;
#X obj 172 325 b;
#X obj 288 417 keyboard 16 80 1 3 0 0 empty empty;
#X obj 304 200 keymap 119 50;
#X obj 327 233 keymap 101 52;
#X obj 354 265 keymap 114 53;
#X obj 371 296 keymap 116 55;
#X obj 543 417 tgl 79 0 empty empty q\ is\ being\ pressed 17 7 0 20 #e4e4e4 #4d4d4d #373737 0 1;
#X obj 543 169 keypress 113;
#X obj 288 169 keymap 113 48;
#X text 288 141 both keymap and keypress are our helper objects \, check them out...;
#X text 72 501 example to work with keyboard and use it to control a state..., f 17;
#X text 74 66 keyboard input is OS dependent... so you may have to update those key number values to make it work..., f 18;
#X connect 0 0 1 0;
#X connect 0 0 2 0;
#X connect 2 0 4 0;
#X connect 2 1 6 0;
#X connect 2 2 8 0;
#X connect 2 3 10 0;
#X connect 4 0 3 0;
#X connect 6 0 5 0;
#X connect 8 0 7 0;
#X connect 10 0 9 0;
#X connect 12 0 11 0;
#X connect 13 0 11 0;
#X connect 14 0 11 0;
#X connect 15 0 11 0;
#X connect 17 0 16 0;
#X connect 18 0 11 0;
