#N canvas 827 239 527 327 12;
#X obj 275 41 adc~;
#X obj 275 83 env~ 128;
#X obj 275 334 bng 164 250 50 0 empty empty hit! 17 7 0 40 #e4e4e4 #4d4d4d #373737;
#X obj 275 162 change;
#X obj 275 203 sel 1;
#X obj 438 129 dac~;
#X obj 334 130 nbx 4 18 -1e+37 1e+37 0 0 empty empty empty 0 -8 0 10 #e4e4e4 #373737 #373737 0 256;
#X obj 275 122 > 40;
#X connect 0 0 1 0;
#X connect 0 0 5 0;
#X connect 0 1 1 0;
#X connect 0 1 5 1;
#X connect 1 0 6 0;
#X connect 1 0 7 0;
#X connect 3 0 4 0;
#X connect 4 0 2 0;
#X connect 7 0 3 0;
