#N canvas 827 239 527 327 12;
#X obj 227 194 > 60;
#X obj 227 56 adc~;
#X obj 227 111 bp~ 1000 2;
#X obj 227 152 env~ 1024;
#X obj 227 238 change;
#X obj 227 278 sel 1 0;
#X msg 201 322 1;
#X msg 240 322 0;
#X obj 201 373 tgl 149 0 empty empty voice\ activity\ detected 17 7 0 20 #e4e4e4 #4d4d4d #373737 0 1;
#X connect 0 0 4 0;
#X connect 1 0 2 0;
#X connect 1 1 2 0;
#X connect 2 0 3 0;
#X connect 3 0 0 0;
#X connect 4 0 5 0;
#X connect 5 0 6 0;
#X connect 5 1 7 0;
#X connect 6 0 8 0;
#X connect 7 0 8 0;
