#N canvas 827 239 527 327 12;
#X obj 218 99 key;
#X msg 221 187 1;
#X obj 218 217 change;
#X obj 292 99 keyup;
#X msg 259 187 0;
#X obj 218 256 t b f;
#X obj 259 306 * 127;
#X obj 218 140 sel \$1;
#X obj 292 140 sel \$1;
#X obj 217 345 pack \$2 f;
#X obj 217 395 outlet;
#X connect 0 0 7 0;
#X connect 1 0 2 0;
#X connect 2 0 5 0;
#X connect 3 0 8 0;
#X connect 4 0 2 0;
#X connect 5 0 9 0;
#X connect 5 1 6 0;
#X connect 6 0 9 1;
#X connect 7 0 1 0;
#X connect 8 0 4 0;
#X connect 9 0 10 0;
