#N canvas 827 239 527 327 12;
#X obj 218 99 key;
#X msg 221 187 1;
#X obj 218 217 change;
#X obj 292 99 keyup;
#X msg 259 187 0;
#X obj 218 140 sel \$1;
#X obj 292 140 sel \$1;
#X obj 218 268 outlet;
#X connect 0 0 5 0;
#X connect 1 0 2 0;
#X connect 2 0 7 0;
#X connect 3 0 6 0;
#X connect 4 0 2 0;
#X connect 5 0 1 0;
#X connect 6 0 4 0;
