#N canvas 0 50 450 300 12;
#X obj 776 579 soundfiler;
#X obj 776 314 openpanel;
#X obj 776 193 inlet;
#X obj 776 739 outlet;
#X obj 805 417 symbol \$1;
#X obj 776 477 pack s s s;
#X obj 776 360 t s b b;
#X obj 881 417 symbol \$2;
#X msg 776 519 read -resize \$1 \$2 \$3;
#X connect 0 0 3 0;
#X connect 1 0 6 0;
#X connect 2 0 1 0;
#X connect 4 0 5 1;
#X connect 5 0 8 0;
#X connect 6 0 5 0;
#X connect 6 1 4 0;
#X connect 6 2 7 0;
#X connect 7 0 5 2;
#X connect 8 0 0 0;
