#N canvas 827 239 527 327 12;
#N canvas 0 0 450 250 (subpatch) 0;
#X array \$0-sample-A 3.85029e+06 float 4;
#X coords 0 1 3.85029e+06 -1 200 140 1;
#X restore 1803 80 graph;
#X obj 2607 67 bng 57 250 50 0 empty empty load\ soundfile 17 7 0 10 #e4e4e4 #4d4d4d #373737;
#X obj 1915 258 hsl 194 34 0 1 0 0 empty empty position\ (0\ -\ size\ of\ the\ table) -2 -8 0 10 #e4e4e4 #4d4d4d #373737 0 1;
#X obj 1915 316 hsl 194 34 0.05 1 0 1 empty empty grain\ duration\ (0.05-1\ seonds) -2 -8 0 10 #e4e4e4 #4d4d4d #373737 2798 1;
#X obj 2595 681 output~;
#X obj 2595 402 *;
#X msg 2595 443 next \$1;
#X obj 2637 232 vsl 34 87 0 4 0 0 empty empty jitter\ (0\ -\ 4\ seconds) 0 -9 0 10 #e4e4e4 #4d4d4d #373737 0 1;
#X obj 1912 373 s A-grain_duration;
#X obj 2637 352 s A-position_jitter;
#X obj 1797 316 s A-position;
#X obj 2507 360 r A-position;
#X obj 2595 476 clone granula~ 1 \$0-sample-A A;
#N canvas 0 0 450 250 (subpatch) 0;
#X array \$0-sample-B 1.59887e+07 float 4;
#X coords 0 1 1.59887e+07 -1 200 140 1;
#X restore 2021 80 graph;
#X obj 2878 67 bng 57 250 50 0 empty empty load\ soundfile 17 7 0 10 #e4e4e4 #4d4d4d #373737;
#X obj 2866 402 *;
#X msg 2866 443 next \$1;
#X obj 2908 232 vsl 34 87 0 4 0 0 empty empty jitter\ (0\ -\ 4\ seconds) 0 -9 0 10 #e4e4e4 #4d4d4d #373737 0 1;
#X obj 2607 154 tools/loadsound \$0-sample-A;
#X obj 2878 154 tools/loadsound \$0-sample-B;
#X obj 2908 352 s B-position_jitter;
#X obj 2778 360 r B-position;
#X obj 1941 406 s B-grain_duration;
#X obj 1797 366 s B-position;
#X obj 2866 476 clone granula~ 64 \$0-sample-B B;
#X connect 1 0 18 0;
#X connect 2 0 10 0;
#X connect 2 0 23 0;
#X connect 3 0 8 0;
#X connect 3 0 22 0;
#X connect 5 0 6 0;
#X connect 6 0 12 0;
#X connect 7 0 9 0;
#X connect 11 0 5 0;
#X connect 12 0 4 0;
#X connect 12 0 4 1;
#X connect 14 0 19 0;
#X connect 15 0 16 0;
#X connect 16 0 24 0;
#X connect 17 0 20 0;
#X connect 18 0 5 1;
#X connect 19 0 15 1;
#X connect 21 0 15 0;
#X connect 24 0 4 0;
#X connect 24 0 4 1;
