#N canvas 827 239 527 327 12;
#X msg 1714 962 \$1 \, \$2 \$3;
#X obj 1768 837 +;
#X obj 2219 572 samplerate~;
#X obj 2219 498 loadbang;
#X obj 1714 926 pack f f f;
#X obj 1714 995 vline~;
#X obj 1915 716 *;
#X obj 1879 1025 vline~;
#X msg 1879 992 1 10 \, 0 10 \$1;
#X obj 1879 958 - 10;
#X obj 1879 925 float 0.05;
#X obj 1879 1062 cos~;
#X obj 1714 1131 outlet~;
#X obj 1712 368 inlet;
#X obj 1714 1044 tabread4~ \$2;
#X obj 1712 763 t f f b;
#X obj 1714 1079 *~;
#X obj 1980 774 * 1000;
#X obj 1754 674 random 0;
#X obj 1712 716 +;
#X obj 1797 635 *;
#X obj 1712 620 t f b;
#X obj 1980 830 * 1;
#X obj 1915 572 float 0.05;
#X obj 1948 467 t b f;
#X obj 2110 467 t b f;
#X obj 1797 467 t f b;
#X obj 1797 415 r \$3-position_jitter;
#X obj 1948 415 r \$3-grain_duration;
#X obj 2110 415 r \$3-speed;
#X connect 0 0 5 0;
#X connect 1 0 4 1;
#X connect 2 0 6 1;
#X connect 2 0 20 1;
#X connect 3 0 2 0;
#X connect 4 0 0 0;
#X connect 5 0 14 0;
#X connect 6 0 1 1;
#X connect 7 0 11 0;
#X connect 8 0 7 0;
#X connect 9 0 8 0;
#X connect 10 0 9 0;
#X connect 11 0 16 1;
#X connect 13 0 21 0;
#X connect 14 0 16 0;
#X connect 15 0 4 0;
#X connect 15 1 1 0;
#X connect 15 2 10 0;
#X connect 16 0 12 0;
#X connect 17 0 22 0;
#X connect 18 0 19 1;
#X connect 19 0 15 0;
#X connect 20 0 18 1;
#X connect 21 0 19 0;
#X connect 21 1 18 0;
#X connect 22 0 4 2;
#X connect 22 0 10 1;
#X connect 23 0 17 0;
#X connect 23 0 6 0;
#X connect 24 0 23 0;
#X connect 24 1 23 1;
#X connect 25 0 23 0;
#X connect 25 1 22 1;
#X connect 26 0 20 0;
#X connect 26 1 24 0;
#X connect 27 0 26 0;
#X connect 28 0 24 0;
#X connect 29 0 25 0;
