#N canvas 827 239 527 327 12;
#N canvas 0 0 450 250 (subpatch) 0;
#X array \$0-sample-A 1.59887e+07 float 4;
#X coords 0 1 1.59887e+07 -1 200 140 1;
#X restore 1803 80 graph;
#X obj 2292 90 bng 57 250 50 0 empty empty load\ soundfile 17 7 0 10 #e4e4e4 #4d4d4d #373737;
#X obj 1806 243 hsl 194 34 0 1 0 0 empty empty position\ (0\ -\ size\ of\ the\ table) -2 -8 0 10 #e4e4e4 #4d4d4d #373737 0 1;
#X obj 1806 301 hsl 194 34 0.05 1 0 1 empty empty grain\ duration\ (0.05-1\ seonds) -2 -8 0 10 #e4e4e4 #4d4d4d #373737 0 1;
#X obj 2292 177 tools/loadsound \$0-sample;
#X obj 2280 567 output~;
#X obj 2280 425 *;
#X msg 2280 466 next \$1;
#X obj 2322 255 vsl 34 87 0 4 0 0 empty empty jitter\ (0\ -\ 4\ seconds) 0 -9 0 10 #e4e4e4 #4d4d4d #373737 0 1;
#X obj 1803 358 s A-grain_duration;
#X obj 2322 375 s A-position_jitter;
#X obj 1688 301 s A-position;
#X obj 2192 383 r A-position;
#X obj 2280 499 clone granula~ 1 \$0-sample-A A;
#X connect 1 0 4 0;
#X connect 2 0 11 0;
#X connect 3 0 9 0;
#X connect 4 0 6 1;
#X connect 6 0 7 0;
#X connect 7 0 13 0;
#X connect 8 0 10 0;
#X connect 12 0 6 0;
#X connect 13 0 5 0;
#X connect 13 0 5 1;
