#N canvas 0 27 1920 1104 10;
#X obj 0 1 cnv 15 242 448 empty empty empty 20 12 0 14 #ffffff #373737 0;
#X obj 24 18 hsl 128 20 0.0001 4 0 0 empty empty empty -2 -8 0 10 #e4e4e4 #4d4d4d #373737 0 1;
#X obj 282 177 phasor~;
#X obj 282 381 *~ 0.5;
#X obj 282 251 cos~;
#X obj 282 215 +~;
#N canvas 0 0 450 250 (subpatch) 0;
#X array \$0-bpf_freqs 100 float 2;
#X coords 0 40 100 0.0001 200 140 1;
#X restore 18 223 graph;
#X obj 584 37 *~ 100;
#N canvas 0 0 450 250 (subpatch) 0;
#X array \$0-freqs 100 float 2;
#X coords 0 2000 100 0.005 200 140 1;
#X restore 18 63 graph;
#X obj 282 42 *~ 100;
#X obj 282 422 hip~ 100;
#X obj 584 69 tabread4~ \$0-bpf_freqs;
#X obj 282 69 tabread4~ \$0-freqs;
#X obj 18 377 output~;
#X obj 282 11 phasor~;
#X obj 402 171 reson~ 0.75 5 2;
#X obj 402 215 *~ 6.28319;
#X obj 402 131 delread4~ \$0-fb 1;
#X obj 330 309 delwrite~ \$0-fb 1;
#X connect 1 0 14 0;
#X connect 2 0 5 0;
#X connect 3 0 10 0;
#X connect 4 0 3 0;
#X connect 4 0 18 0;
#X connect 5 0 4 0;
#X connect 7 0 11 0;
#X connect 9 0 12 0;
#X connect 10 0 13 1;
#X connect 10 0 13 0;
#X connect 11 0 15 2;
#X connect 12 0 2 0;
#X connect 14 0 9 0;
#X connect 14 0 7 0;
#X connect 15 0 16 0;
#X connect 16 0 5 1;
#X connect 17 0 15 0;
#X coords 0 0 1 1 242 450 1 0 0;
