#N canvas 0 27 1920 1104 10;
#X obj 2 1 cnv 15 243 514 empty empty empty 20 12 0 14 #ffffff #373737 0;
#X obj 283 470 phasor~;
#X obj 283 589 *~ 0.5;
#X obj 283 550 cos~;
#N canvas 0 0 450 250 (subpatch) 0;
#X array \$0-bpf_freqs 8 float 2;
#X coords 0 40 8 0.0001 200 140 1;
#X restore 21 315 graph;
#N canvas 0 0 450 250 (subpatch) 0;
#X array \$0-osc_freqs 8 float 2;
#X coords 0 2000 8 0.005 200 140 1;
#X restore 21 157 graph;
#X obj 283 630 hip~ 100;
#X obj 21 113 hradio 24 1 0 8 empty empty empty 0 -8 0 10 #e4e4e4 #4d4d4d #373737 0;
#X obj 187 53 tgl 25 0 empty empty empty 17 7 0 10 #e4e4e4 #4d4d4d #373737 0 1;
#X obj 283 189 float 0;
#X obj 283 235 + 1;
#X obj 283 279 mod 8;
#X obj 20 20 output~;
#X obj 283 514 +~;
#X obj 543 630 *~ 6.28318;
#X obj 543 578 reson~ 0.75 5 2;
#X obj 549 464 delwrite~ \$0-fb 1;
#X obj 543 524 delread4~ \$0-fb 1;
#X obj 136 20 nbx 7 26 5 1000 0 0 empty empty empty 0 -8 0 10 #e4e4e4 #373737 #373737 0 256;
#X obj 458 164 /;
#X obj 458 202 * 1000;
#X obj 283 127 t b b;
#X obj 458 92 float 120;
#X obj 283 387 pack f f;
#X obj 283 426 line~;
#X obj 283 16 t f f;
#X msg 458 129 60 \$1;
#X obj 283 93 metro 1 120 permin;
#X msg 283 55 tempo \$1 permin;
#X obj 412 387 pack f f;
#X obj 412 426 line~;
#X obj 458 235 / 16;
#X obj 283 330 tabread \$0-osc_freqs;
#X obj 439 330 tabread \$0-bpf_freqs;
#X connect 1 0 13 0;
#X connect 2 0 6 0;
#X connect 3 0 2 0;
#X connect 3 0 16 0;
#X connect 6 0 12 0;
#X connect 6 0 12 1;
#X connect 8 0 27 0;
#X connect 9 0 10 0;
#X connect 10 0 9 1;
#X connect 10 0 11 0;
#X connect 11 0 7 0;
#X connect 11 0 32 0;
#X connect 11 0 33 0;
#X connect 13 0 3 0;
#X connect 14 0 13 1;
#X connect 15 0 14 0;
#X connect 17 0 15 0;
#X connect 18 0 25 0;
#X connect 19 0 20 0;
#X connect 20 0 31 0;
#X connect 21 0 9 0;
#X connect 21 1 22 0;
#X connect 22 0 26 0;
#X connect 23 0 24 0;
#X connect 24 0 1 0;
#X connect 25 0 28 0;
#X connect 25 1 22 1;
#X connect 26 0 19 0;
#X connect 27 0 21 0;
#X connect 28 0 27 0;
#X connect 29 0 30 0;
#X connect 30 0 15 2;
#X connect 31 0 23 1;
#X connect 31 0 29 1;
#X connect 32 0 23 0;
#X connect 33 0 29 0;
#X coords 0 0 1 1 240 516 1 0 0;
