#N canvas 827 239 527 327 12;
#X obj 466 98 soundfiler;
#X obj 370 98 openpanel;
#X obj 370 61 bng 25 250 50 0 empty empty empty 17 7 0 10 #e4e4e4 #4d4d4d #373737;
#N canvas 0 0 450 250 (subpatch) 0;
#X array sample 1.59887e+07 float 2;
#X coords 0 1 1.59887e+07 -1 200 140 1;
#X restore 654 61 graph;
#X msg 466 61 read -resize \$1 sample;
#X obj 495 579 tabread4~ sample;
#X obj 370 425 phasor~;
#X obj 495 360 +~;
#X obj 608 462 scale 0 1 0 44100;
#X obj 611 421 hsl 128 17 0 1 0 0 empty empty empty -2 -8 0 10 #e4e4e4 #4d4d4d #373737 0 1;
#X obj 495 620 dac~;
#X obj 370 462 *~ 44100;
#X obj 300 180 hsl 128 17 5 44100 0 0 empty empty empty -2 -8 0 10 #e4e4e4 #4d4d4d #373737 0 1;
#X text 608 394 position;
#X obj 389 240 samplerate~;
#X obj 297 233 t f f b;
#X obj 370 288 /;
#X obj 370 337 sig~;
#N canvas 0 0 450 250 (subpatch) 0;
#X array positions 8 float 2;
#X coords 0 1 8 0 200 140 1;
#X restore 957 58 graph;
#X obj 915 337 tgl 25 0 empty empty empty 17 7 0 10 #e4e4e4 #4d4d4d #373737 0 1;
#X obj 915 462 + 1;
#X obj 915 421 float 0;
#X obj 915 503 mod 8;
#X obj 915 555 tabread positions;
#X obj 915 380 metro 100;
#X connect 0 0 8 4;
#X connect 1 0 4 0;
#X connect 2 0 1 0;
#X connect 4 0 0 0;
#X connect 5 0 10 0;
#X connect 5 0 10 1;
#X connect 6 0 11 0;
#X connect 7 0 5 0;
#X connect 8 0 7 1;
#X connect 9 0 8 0;
#X connect 11 0 7 0;
#X connect 12 0 15 0;
#X connect 14 0 16 0;
#X connect 15 0 11 1;
#X connect 15 1 16 1;
#X connect 15 2 14 0;
#X connect 16 0 17 0;
#X connect 17 0 6 0;
#X connect 19 0 24 0;
#X connect 20 0 22 0;
#X connect 21 0 20 0;
#X connect 22 0 21 1;
#X connect 22 0 23 0;
#X connect 23 0 8 0;
#X connect 24 0 21 0;
