#N canvas 827 239 527 327 12;
#X obj 16 21 bng 25 250 50 0 empty empty empty 17 7 0 10 #e4e4e4 #4d4d4d #373737;
#X obj 16 56 openpanel;
#N canvas 0 0 450 250 (subpatch) 0;
#X array sample 7.7353e+06 float 2;
#X coords 0 1 7.7353e+06 -1 79 53 1;
#X restore 181 23 graph;
#X obj 16 124 soundfiler;
#X msg 16 92 read -resize \$1 sample;
#X obj 371 149 tabplay~ sample, f 15;
#X obj 371 188 output~;
#X msg 440 122 stop;
#X obj 440 38 tgl 25 0 empty empty empty 17 7 0 10 #e4e4e4 #4d4d4d #373737 0 1;
#X obj 440 81 select 0 1;
#X obj 78 227 select 0 1 2 3 4 5 6 7;
#X obj 74 192 hradio 20 1 0 8 empty empty empty 0 -8 0 10 #e4e4e4 #4d4d4d #373737 0;
#X obj 16 260 bng 25 250 50 0 empty empty empty 17 7 0 10 #e4e4e4 #4d4d4d #373737;
#X obj 43 291 bng 25 250 50 0 empty empty empty 17 7 0 10 #e4e4e4 #4d4d4d #373737;
#X obj 129 321 bng 25 250 50 0 empty empty empty 17 7 0 10 #e4e4e4 #4d4d4d #373737;
#X obj 78 321 bng 25 250 50 0 empty empty empty 17 7 0 10 #e4e4e4 #4d4d4d #373737;
#X obj 214 321 bng 25 250 50 0 empty empty empty 17 7 0 10 #e4e4e4 #4d4d4d #373737;
#X obj 173 321 bng 25 250 50 0 empty empty empty 17 7 0 10 #e4e4e4 #4d4d4d #373737;
#X obj 254 321 bng 25 250 50 0 empty empty empty 17 7 0 10 #e4e4e4 #4d4d4d #373737;
#X obj 295 315 bng 25 250 50 0 empty empty empty 17 7 0 10 #e4e4e4 #4d4d4d #373737;
#X text 95 172 dzigni do abstrakcie;
#N canvas 0 50 450 300 vysvetlenie 1;
#X obj 417 331 select 0 1 2 3 4 5 6 7;
#X obj 413 296 hradio 20 1 0 8 empty empty empty 0 -8 0 10 #e4e4e4 #4d4d4d #373737 0;
#X obj 355 364 bng 25 250 50 0 empty empty empty 17 7 0 10 #e4e4e4 #4d4d4d #373737;
#X obj 382 395 bng 25 250 50 0 empty empty empty 17 7 0 10 #e4e4e4 #4d4d4d #373737;
#X obj 468 425 bng 25 250 50 0 empty empty empty 17 7 0 10 #e4e4e4 #4d4d4d #373737;
#X obj 417 425 bng 25 250 50 0 empty empty empty 17 7 0 10 #e4e4e4 #4d4d4d #373737;
#X obj 553 425 bng 25 250 50 0 empty empty empty 17 7 0 10 #e4e4e4 #4d4d4d #373737;
#X obj 512 425 bng 25 250 50 0 empty empty empty 17 7 0 10 #e4e4e4 #4d4d4d #373737;
#X obj 593 425 bng 25 250 50 0 empty empty empty 17 7 0 10 #e4e4e4 #4d4d4d #373737;
#X obj 634 419 bng 25 250 50 0 empty empty empty 17 7 0 10 #e4e4e4 #4d4d4d #373737;
#X text 434 276 dzigni do abstrakcie;
#X connect 0 0 2 0;
#X connect 0 1 3 0;
#X connect 0 2 5 0;
#X connect 0 3 4 0;
#X connect 0 4 7 0;
#X connect 0 5 6 0;
#X connect 0 6 8 0;
#X connect 0 7 9 0;
#X connect 1 0 0 0;
#X restore 283 38 pd vysvetlenie selectu;
#X obj 261 173 phasor~;
#X text 254 72 check how it is used with tabread4~ when reading from array as an audio data, f 15;
#X connect 0 0 1 0;
#X connect 1 0 4 0;
#X connect 4 0 3 0;
#X connect 5 0 6 0;
#X connect 5 0 6 1;
#X connect 7 0 5 0;
#X connect 8 0 9 0;
#X connect 9 0 7 0;
#X connect 9 1 5 0;
#X connect 10 0 12 0;
#X connect 10 1 13 0;
#X connect 10 2 15 0;
#X connect 10 3 14 0;
#X connect 10 4 17 0;
#X connect 10 5 16 0;
#X connect 10 6 18 0;
#X connect 10 7 19 0;
#X connect 11 0 10 0;
