#N canvas 827 239 527 327 12;
#X obj 99 82 tgl 25 0 empty empty empty 17 7 0 10 #e4e4e4 #4d4d4d #373737 0 1;
#X obj 99 174 bng 25 250 50 0 empty empty empty 17 7 0 10 #e4e4e4 #4d4d4d #373737;
#X obj 99 137 metro 1000;
#X obj 188 82 hsl 128 17 5 1000 0 0 empty empty empty -2 -8 0 10 #e4e4e4 #4d4d4d #373737 0 1;
#X obj 76 227 float 0;
#X obj 151 174 + 1;
#X obj 159 234 mod 8;
#X obj 159 372 hradio 20 1 0 8 empty empty empty 0 -8 0 10 #e4e4e4 #4d4d4d #373737 0;
#N canvas 0 0 450 250 (subpatch) 0;
#X array frekvencie 8 float 2;
#X coords 0 880 8 60 38 38 1;
#X restore 344 82 graph;
#X obj 238 190 tabread frekvencie;
#X obj 25 288 nbx 10 31 -1e+37 1e+37 0 0 empty empty empty 0 -8 0 10 #e4e4e4 #373737 #373737 0 256;
#X obj 362 334 output~;
#X obj 372 258 osc~ 440;
#X obj 449 258 osc~ 440;
#N canvas 0 0 450 250 (subpatch) 0;
#X array frekvencie2 8 float 2;
#X coords 0 880 8 60 38 38 1;
#X restore 416 82 graph;
#X obj 377 190 tabread frekvencie2;
#X obj 437 300 *~;
#X obj 25 334 nbx 10 31 -1e+37 1e+37 0 0 empty empty empty 0 -8 0 10 #e4e4e4 #373737 #373737 0 256;
#X connect 0 0 2 0;
#X connect 1 0 4 0;
#X connect 2 0 1 0;
#X connect 3 0 2 1;
#X connect 4 0 5 0;
#X connect 4 0 6 0;
#X connect 5 0 4 1;
#X connect 6 0 7 0;
#X connect 7 0 9 0;
#X connect 7 0 15 0;
#X connect 9 0 10 0;
#X connect 9 0 12 0;
#X connect 12 0 16 0;
#X connect 13 0 16 1;
#X connect 15 0 13 0;
#X connect 15 0 17 0;
#X connect 16 0 11 0;
#X connect 16 0 11 1;
