#N canvas 0 50 450 300 loadsample 1;
#X obj 776 579 soundfiler;
#X obj 776 314 openpanel;
#X msg 776 519 read -resize \$1 \$2;
#X obj 776 360 t s b;
#X obj 776 472 pack s s;
#X obj 776 193 inlet;
#X obj 776 739 outlet;
#X obj 810 405 symbol \$1;
#X connect 0 0 6 0;
#X connect 1 0 3 0;
#X connect 2 0 0 0;
#X connect 3 0 4 0;
#X connect 3 1 7 0;
#X connect 4 0 2 0;
#X connect 5 0 1 0;
#X connect 7 0 4 1;
