#N canvas 827 239 527 327 12;
#N canvas 0 0 450 250 (subpatch) 0;
#X array \$0-sample 1.20207e+07 float 4;
#X coords 0 1 1.20207e+07 -1 200 140 1;
#X restore 2055 448 graph;
#X obj 2267 448 bng 57 250 50 0 empty empty load\ soundfile 17 7 0 10 #e4e4e4 #4d4d4d #373737;
#X obj 2058 611 hsl 194 34 0 1 0 0 empty empty position\ (0\ -\ size\ of\ the\ table) -2 -8 0 10 #e4e4e4 #4d4d4d #373737 0 1;
#X obj 2058 661 hsl 194 34 0.05 1 0 1 empty empty grain\ duration\ (0.05-1\ seonds) -2 -8 0 10 #e4e4e4 #4d4d4d #373737 9417 1;
#X obj 2267 535 tools/loadsound \$0-sample;
#X obj 2255 925 output~;
#X obj 2255 783 *;
#X msg 2255 824 next \$1;
#X obj 2297 613 vsl 34 87 0 4 0 0 empty empty jitter\ (0\ -\ 4\ seconds) 0 -9 0 10 #e4e4e4 #4d4d4d #373737 0 1;
#X obj 2297 733 s position_jitter;
#X obj 2055 733 s grain_duration;
#X text 2405 732 s (or send) / r (or receive) is like connecting stuff together with a line..., f 16;
#X text 2444 534 check tools folder there is also loadsound2 capable of loading stereo file..., f 18;
#X obj 2535 373 mousestate;
#X obj 2755 726 tgl 179 0 empty empty empty 17 7 0 10 #e4e4e4 #4d4d4d #373737 0 1;
#X obj 1882 196 nbx 27 82 -1e+37 1e+37 0 0 empty empty empty 0 -8 0 10 #e4e4e4 #373737 #373737 0 256;
#X obj 2535 196 tgl 25 0 empty empty track\ mouse 17 7 0 10 #e4e4e4 #4d4d4d #373737 0 1;
#X obj 2651 485 nbx 27 82 -1e+37 1e+37 0 0 empty empty empty 0 -8 0 10 #e4e4e4 #373737 #373737 0 256;
#X obj 2535 323 metro 10;
#X obj 1882 306 scale 0 1919 0 1;
#X obj 2651 603 scale 0 1199 0.05 1;
#X obj 2255 886 *~;
#X obj 2590 886 asr~ 100 100;
#X obj 2590 817 * 127;
#X obj 2255 857 clone granula~ 16 \$0-sample;
#X connect 1 0 4 0;
#X connect 2 0 6 0;
#X connect 3 0 10 0;
#X connect 4 0 6 1;
#X connect 6 0 7 0;
#X connect 7 0 24 0;
#X connect 8 0 9 0;
#X connect 13 0 14 0;
#X connect 13 1 15 0;
#X connect 13 2 17 0;
#X connect 14 0 23 0;
#X connect 15 0 19 0;
#X connect 16 0 18 0;
#X connect 17 0 20 0;
#X connect 18 0 13 0;
#X connect 19 0 2 0;
#X connect 20 0 3 0;
#X connect 21 0 5 0;
#X connect 21 0 5 1;
#X connect 22 0 21 1;
#X connect 23 0 22 0;
#X connect 24 0 21 0;
