#N canvas 827 239 527 327 12;
#N canvas 0 0 450 250 (subpatch) 0;
#X array \$0-sample 1.20207e+07 float 4;
#X coords 0 1 1.20207e+07 -1 200 140 1;
#X restore 2242 215 graph;
#X obj 2454 215 bng 57 250 50 0 empty empty load\ soundfile 17 7 0 10 #e4e4e4 #4d4d4d #373737;
#X obj 2245 378 hsl 194 34 0 1 0 0 empty empty position\ (0\ -\ size\ of\ the\ table) -2 -8 0 10 #e4e4e4 #4d4d4d #373737 0 1;
#X obj 2245 436 hsl 194 34 0.05 1 0 1 empty empty grain\ duration\ (0.05-1\ seonds) -2 -8 0 10 #e4e4e4 #4d4d4d #373737 3148 1;
#X obj 2454 302 tools/loadsound \$0-sample;
#X obj 2442 692 output~;
#X obj 2442 550 *;
#X msg 2442 591 next \$1;
#X obj 2484 380 vsl 34 87 0 4 0 0 empty empty jitter\ (0\ -\ 4\ seconds) 0 -9 0 10 #e4e4e4 #4d4d4d #373737 0 1;
#X obj 2484 500 s position_jitter;
#X obj 2242 500 s grain_duration;
#X text 2592 499 s (or send) / r (or receive) is like connecting stuff together with a line..., f 16;
#X text 2631 301 check tools folder there is also loadsound2 capable of loading stereo file..., f 18;
#X obj 2914 290 hsl 402 77 0.5 2 0 0 empty empty spped -2 -8 0 10 #e4e4e4 #4d4d4d #373737 0 1;
#X obj 2911 479 s speed;
#X obj 2442 624 clone granula~ 1 \$0-sample;
#X connect 1 0 4 0;
#X connect 2 0 6 0;
#X connect 3 0 10 0;
#X connect 4 0 6 1;
#X connect 6 0 7 0;
#X connect 7 0 15 0;
#X connect 8 0 9 0;
#X connect 13 0 14 0;
#X connect 15 0 5 0;
#X connect 15 0 5 1;
