#N canvas 827 239 527 327 12;
#X obj 327 162 keyboard 16 80 4 2 0 0 empty empty;
#X obj 836 238 soundfiler;
#X obj 836 163 openpanel;
#X msg 836 203 read -resize \$1 sample;
#N canvas 0 0 450 250 (subpatch) 0;
#X array sample 8.3714e+06 float 2;
#X coords 0 1 8.3714e+06 -1 200 140 1;
#X restore 1003 162 graph;
#X obj 836 40 bng 25 250 50 0 empty empty empty 17 7 0 10 #e4e4e4 #4d4d4d #373737;
#X obj 327 358 scale 36 80 0;
#X obj 327 399 tabplay~ sample;
#X obj 327 490 output~;
#X obj 327 450 *~;
#X obj 507 399 asr~ 100 100;
#X obj 327 274 unpack f f;
#X obj 327 315 spigot;
#X connect 0 0 11 0;
#X connect 1 0 6 4;
#X connect 2 0 3 0;
#X connect 3 0 1 0;
#X connect 5 0 2 0;
#X connect 6 0 7 0;
#X connect 7 0 9 0;
#X connect 9 0 8 0;
#X connect 10 0 9 1;
#X connect 11 0 12 0;
#X connect 11 1 12 1;
#X connect 11 1 10 0;
#X connect 12 0 6 0;
