#N canvas 827 239 527 327 12;
#X obj 370 4 keyboard 16 80 4 2 0 0 empty empty;
#X obj 1230 209 soundfiler;
#X obj 1230 134 openpanel;
#X msg 1230 174 read -resize \$1 sample;
#N canvas 0 0 450 250 (subpatch) 0;
#X array sample 7.7365e+06 float 2;
#X coords 0 1 7.7365e+06 -1 200 140 1;
#X restore 1397 133 graph;
#X obj 1230 11 bng 25 250 50 0 empty empty empty 17 7 0 10 #e4e4e4 #4d4d4d #373737;
#X obj 525 260 scale 36 80 0;
#X obj 370 116 unpack f f;
#X obj 370 157 spigot;
#X obj 597 558 tabread4~ sample;
#X obj 374 550 phasor~;
#X obj 517 428 +~;
#X obj 374 587 *~ 44100;
#X obj 301 391 t f f b;
#X obj 374 453 /;
#X obj 374 495 sig~;
#X obj 597 656 output~;
#X obj 597 601 *~;
#X obj 683 174 asr~ 100 100;
#X obj 370 246 t f b;
#X obj 408 290 samplerate~;
#X obj 301 342 scale 36 80 5;
#X obj 393 398 float;
#X connect 0 0 7 0;
#X connect 1 0 6 4;
#X connect 2 0 3 0;
#X connect 3 0 1 0;
#X connect 5 0 2 0;
#X connect 6 0 11 1;
#X connect 7 0 8 0;
#X connect 7 1 8 1;
#X connect 7 1 18 0;
#X connect 8 0 19 0;
#X connect 8 0 6 0;
#X connect 9 0 17 0;
#X connect 10 0 12 0;
#X connect 11 0 9 0;
#X connect 12 0 11 0;
#X connect 13 0 12 1;
#X connect 13 1 14 1;
#X connect 13 2 22 0;
#X connect 14 0 15 0;
#X connect 15 0 10 0;
#X connect 17 0 16 0;
#X connect 17 0 16 1;
#X connect 18 0 17 1;
#X connect 19 0 21 0;
#X connect 19 1 20 0;
#X connect 20 0 21 4;
#X connect 20 0 22 1;
#X connect 21 0 13 0;
#X connect 22 0 14 0;
