#N canvas 827 239 527 327 12;
#N canvas 0 0 450 250 (subpatch) 0;
#X array liverec_L 441000 float 4;
#X coords 0 1 440999 -1 200 140 1;
#X restore 673 42 graph;
#X obj 148 43 adc~;
#N canvas 0 0 450 250 (subpatch) 0;
#X array liverec_R 441000 float 4;
#X coords 0 1 440999 -1 200 140 1;
#X restore 888 42 graph;
#X obj 148 673 tabwrite~ liverec_L;
#X obj 291 673 tabwrite~ liverec_R;
#X obj 344 42 tgl 70 0 empty empty REC 17 7 0 10 #e4e4e4 #4d4d4d #373737 0 1;
#X obj 344 224 sel 1;
#X msg 400 384 stop;
#X obj 673 472 tabplay~ liverec_L;
#X obj 673 634 output~;
#X obj 806 472 tabplay~ liverec_R;
#X obj 673 341 bng 70 250 50 0 empty empty PLAY 17 7 0 10 #e4e4e4 #4d4d4d #373737;
#X connect 1 0 3 0;
#X connect 1 1 4 0;
#X connect 5 0 6 0;
#X connect 6 0 3 0;
#X connect 6 0 4 0;
#X connect 6 1 7 0;
#X connect 7 0 4 0;
#X connect 7 0 3 0;
#X connect 8 0 9 0;
#X connect 10 0 9 1;
#X connect 11 0 8 0;
#X connect 11 0 10 0;
