#N canvas 827 239 527 327 12;
#X obj 128 121 mousestate;
#X obj 543 132 openpanel;
#X obj 543 221 soundfiler;
#N canvas 0 0 450 250 (subpatch) 0;
#X array mnau 1.20207e+07 float 4;
#X coords 0 1 1.20207e+07 -1 200 140 1;
#X restore 750 90 graph;
#X msg 543 177 read -resize \$1 mnau;
#X obj 543 18 bng 25 250 50 0 empty empty empty 17 7 0 10 #e4e4e4 #4d4d4d #373737;
#X obj -100 413 nbx 4 77 -1e+37 1e+37 0 0 empty empty X 0 -8 0 50 #e4e4e4 #373737 #373737 0 256;
#X obj -100 510 nbx 4 77 -1e+37 1e+37 0 0 empty empty Y 0 -8 0 50 #e4e4e4 #373737 #373737 0 256;
#X obj 128 73 metro 10;
#X obj -83 2 tgl 109 0 empty empty track\ mouse 17 7 0 50 #e4e4e4 #4d4d4d #373737 0 1;
#X obj 328 258 scale 0 1919 0 0;
#X text -58 153 get state of mouse each 10ms;
#X obj 196 370 pack f f;
#X obj 196 459 tabread4~ mnau;
#X obj 196 529 output~;
#X obj 328 300 scale 0 1199 10 1000;
#X text 328 221 mapping X and Y...;
#X obj 196 413 vline~;
#X text 259 412 better line~ ...;
#X connect 0 1 6 0;
#X connect 0 1 10 0;
#X connect 0 2 7 0;
#X connect 0 2 15 0;
#X connect 1 0 4 0;
#X connect 2 0 10 4;
#X connect 4 0 2 0;
#X connect 5 0 1 0;
#X connect 8 0 0 0;
#X connect 9 0 8 0;
#X connect 10 0 12 0;
#X connect 12 0 17 0;
#X connect 13 0 14 0;
#X connect 13 0 14 1;
#X connect 15 0 12 1;
#X connect 17 0 13 0;
